<svg xmlns="http://www.w3.org/2000/svg" version="1" viewBox="0 0 24 24" enable-background="new 0 0 24 24" style="fill: rgb(127, 140, 141);">
    <path d="M 12 2 C 6.5 2 2 6.5 2 12 C 2 17.5 6.5 22 12 22 C 17.5 22 22 17.5 22 12 C 22 6.5 17.5 2 12 2 z M 12 4 C 16.4 4 20 7.6 20 12 C 20 13.8392 19.366016 15.551105 18.3125 16.90625 L 7.09375 5.6875 C 8.4488946 4.6339842 10.1608 4 12 4 z M 5.6875 7.09375 L 16.90625 18.3125 C 15.551105 19.366016 13.8392 20 12 20 C 7.6 20 4 16.4 4 12 C 4 10.1608 4.6339842 8.4488946 5.6875 7.09375 z"/>
</svg>